<svg xmlns="http://www.w3.org/2000/svg" xmlns:xlink="http://www.w3.org/1999/xlink" id="Capa_1" x="0px" y="0px" viewBox="0 0 200 200" style="enable-background:new 0 0 200 200;" xml:space="preserve"> <style type="text/css"> .st0{fill:#7E4CEA;} .st1{fill:#040006;} </style> <path class="st0" d="M78.2,63.5c0,19.9-16.1,36.1-36.1,36.1c-19.9,0-36.1-16.1-36.1-36.1c0-19.9,16.1-36.1,36.1-36.1 C62.1,27.5,78.2,43.6,78.2,63.5"></path> <path class="st1" d="M51.1,63.5c0,4.9-4,8.9-8.9,8.9s-8.9-4-8.9-8.9c0-4.9,4-8.9,8.9-8.9S51.1,58.6,51.1,63.5"></path> <path class="st0" d="M156.4,63.5c0,23.9-19.3,43.2-43.2,43.2c-23.9,0-43.2-19.3-43.2-43.2c0-23.9,19.3-43.2,43.2-43.2 C137,20.3,156.4,39.7,156.4,63.5"></path> <path class="st1" d="M125.8,63.5c0,7-5.7,12.6-12.6,12.6c-7,0-12.6-5.7-12.6-12.6c0-7,5.7-12.6,12.6-12.6 C120.1,50.9,125.8,56.6,125.8,63.5"></path> <path class="st1" d="M78.2,182.3c32,0,58-26,58-58h-116C20.2,156.3,46.2,182.3,78.2,182.3"></path> <path class="st0" d="M107,146.8c4.7-1.6,11.9-3,19.6-4.5c6.6-1.3,13.4-2.7,17.3-3.9c4.5-10.9,32.3-78.6,35.8-86.9l16.2-5.6 c-3.5,8.4-35.3,87-39.9,98c-0.4,0.9-1,2.5-2.4,4c-1.9,2-4.1,2.7-5.5,3.1c-4.6,1.5-11.6,2.9-19,4.3c-6.9,1.4-14,2.8-18,4.1L107,146.8 z M143.5,139.2L143.5,139.2z"></path> <ellipse class="st0" cx="97.2" cy="153.6" rx="20.2" ry="13.7"></ellipse> </svg>